# xmcd
#
# Track frame offsets:
#	177
#	21057
#	37477
#	59140
#
# Disc length: 936 seconds
#
# Revision: 0
# Processed by: cddbd v1.5.2PL0 Copyright (c) Steve Scherf et al.
# Submitted via: EasyCDDAExtractor 5.0.2.1
#
DISCID=3903a604
DTITLE=Mad Dog Loose - Devil Waltz (EP)
DYEAR=1900
DGENRE=
TTITLE0=Devil Waltz
TTITLE1=Metal Blue
TTITLE2=Sitting In The Backyard
TTITLE3=Not For Sale
EXTD=
EXTT0=
EXTT1=
EXTT2=
EXTT3=
PLAYORDER=
